<mxfile host="drawio-plugin" modified="2023-05-19T09:43:48.825Z" agent="5.0 (X11; Linux x86_64) AppleWebKit/537.36 (KHTML, like Gecko) Chrome/104.0.5112.102 Safari/537.36" etag="96kX-nKXKCZ19Oj9jvBf" version="20.5.3" type="embed"><diagram id="6a731a19-8d31-9384-78a2-239565b7b9f0" name="Page-1"><mxGraphModel dx="487" dy="563" grid="1" gridSize="10" guides="1" tooltips="1" connect="1" arrows="1" fold="1" page="1" pageScale="1" pageWidth="827" pageHeight="1169" background="none" math="0" shadow="0"><root><mxCell id="0"/><mxCell id="1" parent="0"/><mxCell id="eoMGSKBOUgeIE6Lk5qr4-2287" value="Edge 2" style="rounded=1;whiteSpace=wrap;html=1;fillColor=#dae8fc;strokeColor=#6c8ebf;fontSize=26;verticalAlign=top;" parent="1" vertex="1"><mxGeometry x="1541" y="180" width="741" height="770" as="geometry"/></mxCell><mxCell id="eoMGSKBOUgeIE6Lk5qr4-2288" value="Black network" style="rounded=1;whiteSpace=wrap;html=1;fillColor=#dae8fc;strokeColor=#6c8ebf;fontSize=26;verticalAlign=top;" parent="1" vertex="1"><mxGeometry x="961" y="180" width="560" height="770" as="geometry"/></mxCell><mxCell id="eoMGSKBOUgeIE6Lk5qr4-2286" value="&lt;font style=&quot;font-size: 26px;&quot;&gt;Edge 1&lt;br&gt;&lt;/font&gt;" style="rounded=1;whiteSpace=wrap;html=1;fillColor=#dae8fc;strokeColor=#6c8ebf;verticalAlign=top;" parent="1" vertex="1"><mxGeometry x="200" y="180" width="741" height="770" as="geometry"/></mxCell><mxCell id="2114" value="&lt;font color=&quot;#000000&quot;&gt;s1&lt;/font&gt;" style="shape=mxgraph.cisco.switches.workgroup_switch;html=1;dashed=0;fillColor=#10739E;strokeColor=#ffffff;strokeWidth=2;verticalLabelPosition=bottom;verticalAlign=top;fontFamily=Helvetica;fontSize=26;fontColor=#FFB366" parent="1" vertex="1"><mxGeometry x="421" y="724" width="101" height="50" as="geometry"/></mxCell><mxCell id="2172" style="edgeStyle=none;rounded=1;html=1;strokeColor=#23445D;endArrow=none;endFill=0;strokeWidth=4" parent="1" target="2114" edge="1"><mxGeometry relative="1" as="geometry"><mxPoint x="611" y="749" as="sourcePoint"/></mxGeometry></mxCell><mxCell id="eoMGSKBOUgeIE6Lk5qr4-2258" value="s2" style="shape=mxgraph.cisco.switches.workgroup_switch;html=1;dashed=0;fillColor=#10739E;strokeColor=#ffffff;strokeWidth=2;verticalLabelPosition=bottom;verticalAlign=top;fontFamily=Helvetica;fontSize=26;fontColor=#000000;" parent="1" vertex="1"><mxGeometry x="611" y="724" width="101" height="50" as="geometry"/></mxCell><mxCell id="eoMGSKBOUgeIE6Lk5qr4-2259" style="edgeStyle=none;rounded=1;html=1;strokeColor=#23445D;endArrow=none;endFill=0;strokeWidth=4" parent="1" target="eoMGSKBOUgeIE6Lk5qr4-2258" edge="1"><mxGeometry relative="1" as="geometry"><mxPoint x="801" y="749" as="sourcePoint"/></mxGeometry></mxCell><mxCell id="eoMGSKBOUgeIE6Lk5qr4-2260" value="s3" style="shape=mxgraph.cisco.switches.workgroup_switch;html=1;dashed=0;fillColor=#10739E;strokeColor=#ffffff;strokeWidth=2;verticalLabelPosition=bottom;verticalAlign=top;fontFamily=Helvetica;fontSize=26;fontColor=#000000;" parent="1" vertex="1"><mxGeometry x="801" y="724" width="101" height="50" as="geometry"/></mxCell><mxCell id="eoMGSKBOUgeIE6Lk5qr4-2261" style="edgeStyle=none;rounded=1;html=1;strokeColor=#23445D;endArrow=none;endFill=0;strokeWidth=4" parent="1" target="eoMGSKBOUgeIE6Lk5qr4-2260" edge="1"><mxGeometry relative="1" as="geometry"><mxPoint x="991" y="749" as="sourcePoint"/></mxGeometry></mxCell><mxCell id="eoMGSKBOUgeIE6Lk5qr4-2262" value="s4" style="shape=mxgraph.cisco.switches.workgroup_switch;html=1;dashed=0;fillColor=#10739E;strokeColor=#ffffff;strokeWidth=2;verticalLabelPosition=bottom;verticalAlign=top;fontFamily=Helvetica;fontSize=26;fontColor=#000000;" parent="1" vertex="1"><mxGeometry x="991" y="724" width="101" height="50" as="geometry"/></mxCell><mxCell id="eoMGSKBOUgeIE6Lk5qr4-2263" style="edgeStyle=none;rounded=1;html=1;strokeColor=#23445D;endArrow=none;endFill=0;strokeWidth=4" parent="1" target="eoMGSKBOUgeIE6Lk5qr4-2262" edge="1"><mxGeometry relative="1" as="geometry"><mxPoint x="1181" y="749" as="sourcePoint"/></mxGeometry></mxCell><mxCell id="eoMGSKBOUgeIE6Lk5qr4-2264" value="s5" style="shape=mxgraph.cisco.switches.workgroup_switch;html=1;dashed=0;fillColor=#10739E;strokeColor=#ffffff;strokeWidth=2;verticalLabelPosition=bottom;verticalAlign=top;fontFamily=Helvetica;fontSize=26;fontColor=#000000;" parent="1" vertex="1"><mxGeometry x="1181" y="724" width="101" height="50" as="geometry"/></mxCell><mxCell id="eoMGSKBOUgeIE6Lk5qr4-2265" style="edgeStyle=none;rounded=1;html=1;strokeColor=#23445D;endArrow=none;endFill=0;strokeWidth=4" parent="1" target="eoMGSKBOUgeIE6Lk5qr4-2264" edge="1"><mxGeometry relative="1" as="geometry"><mxPoint x="1371" y="749" as="sourcePoint"/></mxGeometry></mxCell><mxCell id="eoMGSKBOUgeIE6Lk5qr4-2266" value="s6" style="shape=mxgraph.cisco.switches.workgroup_switch;html=1;dashed=0;fillColor=#10739E;strokeColor=#ffffff;strokeWidth=2;verticalLabelPosition=bottom;verticalAlign=top;fontFamily=Helvetica;fontSize=26;fontColor=#000000;" parent="1" vertex="1"><mxGeometry x="1371" y="724" width="101" height="50" as="geometry"/></mxCell><mxCell id="eoMGSKBOUgeIE6Lk5qr4-2267" style="edgeStyle=none;rounded=1;html=1;strokeColor=#23445D;endArrow=none;endFill=0;strokeWidth=4" parent="1" target="eoMGSKBOUgeIE6Lk5qr4-2266" edge="1"><mxGeometry relative="1" as="geometry"><mxPoint x="1561" y="749" as="sourcePoint"/></mxGeometry></mxCell><mxCell id="eoMGSKBOUgeIE6Lk5qr4-2268" value="s7" style="shape=mxgraph.cisco.switches.workgroup_switch;html=1;dashed=0;fillColor=#10739E;strokeColor=#ffffff;strokeWidth=2;verticalLabelPosition=bottom;verticalAlign=top;fontFamily=Helvetica;fontSize=26;fontColor=#000000;" parent="1" vertex="1"><mxGeometry x="1561" y="724" width="101" height="50" as="geometry"/></mxCell><mxCell id="eoMGSKBOUgeIE6Lk5qr4-2269" style="edgeStyle=none;rounded=1;html=1;strokeColor=#23445D;endArrow=none;endFill=0;strokeWidth=4" parent="1" target="eoMGSKBOUgeIE6Lk5qr4-2268" edge="1"><mxGeometry relative="1" as="geometry"><mxPoint x="1751" y="749" as="sourcePoint"/></mxGeometry></mxCell><mxCell id="eoMGSKBOUgeIE6Lk5qr4-2270" value="s8" style="shape=mxgraph.cisco.switches.workgroup_switch;html=1;dashed=0;fillColor=#10739E;strokeColor=#ffffff;strokeWidth=2;verticalLabelPosition=bottom;verticalAlign=top;fontFamily=Helvetica;fontSize=26;fontColor=#000000;" parent="1" vertex="1"><mxGeometry x="1751" y="724" width="101" height="50" as="geometry"/></mxCell><mxCell id="eoMGSKBOUgeIE6Lk5qr4-2271" style="edgeStyle=none;rounded=1;html=1;strokeColor=#23445D;endArrow=none;endFill=0;strokeWidth=4" parent="1" target="eoMGSKBOUgeIE6Lk5qr4-2270" edge="1"><mxGeometry relative="1" as="geometry"><mxPoint x="1941" y="749" as="sourcePoint"/></mxGeometry></mxCell><mxCell id="eoMGSKBOUgeIE6Lk5qr4-2272" value="s9" style="shape=mxgraph.cisco.switches.workgroup_switch;html=1;dashed=0;fillColor=#10739E;strokeColor=#ffffff;strokeWidth=2;verticalLabelPosition=bottom;verticalAlign=top;fontFamily=Helvetica;fontSize=26;fontColor=#000000;" parent="1" vertex="1"><mxGeometry x="1941" y="724" width="101" height="50" as="geometry"/></mxCell><mxCell id="eoMGSKBOUgeIE6Lk5qr4-2274" value="h1" style="shape=mxgraph.cisco.computers_and_peripherals.pc;sketch=0;html=1;pointerEvents=1;dashed=0;fillColor=#036897;strokeColor=#ffffff;strokeWidth=2;verticalLabelPosition=bottom;verticalAlign=top;align=center;outlineConnect=0;fontColor=#000000;fontSize=26;" parent="1" vertex="1"><mxGeometry x="221" y="594" width="78" height="70" as="geometry"/></mxCell><mxCell id="eoMGSKBOUgeIE6Lk5qr4-2275" value="h2" style="shape=mxgraph.cisco.computers_and_peripherals.pc;sketch=0;html=1;pointerEvents=1;dashed=0;fillColor=#036897;strokeColor=#ffffff;strokeWidth=2;verticalLabelPosition=bottom;verticalAlign=top;align=center;outlineConnect=0;fontColor=#000000;fontSize=26;" parent="1" vertex="1"><mxGeometry x="221" y="714" width="78" height="70" as="geometry"/></mxCell><mxCell id="eoMGSKBOUgeIE6Lk5qr4-2276" value="h3" style="shape=mxgraph.cisco.computers_and_peripherals.pc;sketch=0;html=1;pointerEvents=1;dashed=0;fillColor=#036897;strokeColor=#ffffff;strokeWidth=2;verticalLabelPosition=bottom;verticalAlign=top;align=center;outlineConnect=0;fontColor=#000000;fontSize=26;" parent="1" vertex="1"><mxGeometry x="221" y="834" width="78" height="70" as="geometry"/></mxCell><mxCell id="eoMGSKBOUgeIE6Lk5qr4-2277" style="edgeStyle=none;rounded=1;html=1;strokeColor=#23445D;endArrow=none;endFill=0;strokeWidth=4;exitX=0;exitY=0.5;exitDx=0;exitDy=0;exitPerimeter=0;" parent="1" source="2114" target="eoMGSKBOUgeIE6Lk5qr4-2275" edge="1"><mxGeometry relative="1" as="geometry"><mxPoint x="421" y="748.5" as="sourcePoint"/><mxPoint x="332" y="748.5" as="targetPoint"/></mxGeometry></mxCell><mxCell id="eoMGSKBOUgeIE6Lk5qr4-2278" style="edgeStyle=none;rounded=1;html=1;strokeColor=#23445D;endArrow=none;endFill=0;strokeWidth=4" parent="1" source="2114" target="eoMGSKBOUgeIE6Lk5qr4-2274" edge="1"><mxGeometry relative="1" as="geometry"><mxPoint x="390" y="628.5" as="sourcePoint"/><mxPoint x="311" y="644" as="targetPoint"/></mxGeometry></mxCell><mxCell id="eoMGSKBOUgeIE6Lk5qr4-2279" style="edgeStyle=none;rounded=1;html=1;strokeColor=#23445D;endArrow=none;endFill=0;strokeWidth=4" parent="1" source="2114" target="eoMGSKBOUgeIE6Lk5qr4-2276" edge="1"><mxGeometry relative="1" as="geometry"><mxPoint x="641" y="779" as="sourcePoint"/><mxPoint x="552" y="779" as="targetPoint"/></mxGeometry></mxCell><mxCell id="eoMGSKBOUgeIE6Lk5qr4-2280" value="h4" style="shape=mxgraph.cisco.computers_and_peripherals.pc;sketch=0;html=1;pointerEvents=1;dashed=0;fillColor=#036897;strokeColor=#ffffff;strokeWidth=2;verticalLabelPosition=bottom;verticalAlign=top;align=center;outlineConnect=0;fontColor=#000000;fontSize=26;" parent="1" vertex="1"><mxGeometry x="2161" y="594" width="78" height="70" as="geometry"/></mxCell><mxCell id="eoMGSKBOUgeIE6Lk5qr4-2281" value="h5" style="shape=mxgraph.cisco.computers_and_peripherals.pc;sketch=0;html=1;pointerEvents=1;dashed=0;fillColor=#036897;strokeColor=#ffffff;strokeWidth=2;verticalLabelPosition=bottom;verticalAlign=top;align=center;outlineConnect=0;fontColor=#000000;fontSize=26;" parent="1" vertex="1"><mxGeometry x="2161" y="714" width="78" height="70" as="geometry"/></mxCell><mxCell id="eoMGSKBOUgeIE6Lk5qr4-2282" value="h6" style="shape=mxgraph.cisco.computers_and_peripherals.pc;sketch=0;html=1;pointerEvents=1;dashed=0;fillColor=#036897;strokeColor=#ffffff;strokeWidth=2;verticalLabelPosition=bottom;verticalAlign=top;align=center;outlineConnect=0;fontColor=#000000;fontSize=26;" parent="1" vertex="1"><mxGeometry x="2161" y="834" width="78" height="70" as="geometry"/></mxCell><mxCell id="eoMGSKBOUgeIE6Lk5qr4-2283" style="edgeStyle=none;rounded=1;html=1;strokeColor=#23445D;endArrow=none;endFill=0;strokeWidth=4;exitX=0.98;exitY=0.5;exitDx=0;exitDy=0;exitPerimeter=0;" parent="1" source="eoMGSKBOUgeIE6Lk5qr4-2272" target="eoMGSKBOUgeIE6Lk5qr4-2281" edge="1"><mxGeometry relative="1" as="geometry"><mxPoint x="2361" y="749" as="sourcePoint"/><mxPoint x="2272" y="748.5" as="targetPoint"/></mxGeometry></mxCell><mxCell id="eoMGSKBOUgeIE6Lk5qr4-2284" style="edgeStyle=none;rounded=1;html=1;strokeColor=#23445D;endArrow=none;endFill=0;strokeWidth=4;exitX=1;exitY=0;exitDx=0;exitDy=0;exitPerimeter=0;" parent="1" source="eoMGSKBOUgeIE6Lk5qr4-2272" target="eoMGSKBOUgeIE6Lk5qr4-2280" edge="1"><mxGeometry relative="1" as="geometry"><mxPoint x="2367" y="724" as="sourcePoint"/><mxPoint x="2251" y="644" as="targetPoint"/></mxGeometry></mxCell><mxCell id="eoMGSKBOUgeIE6Lk5qr4-2285" style="edgeStyle=none;rounded=1;html=1;strokeColor=#23445D;endArrow=none;endFill=0;strokeWidth=4;" parent="1" source="eoMGSKBOUgeIE6Lk5qr4-2272" target="eoMGSKBOUgeIE6Lk5qr4-2282" edge="1"><mxGeometry relative="1" as="geometry"><mxPoint x="2351" y="774" as="sourcePoint"/><mxPoint x="2492" y="779" as="targetPoint"/></mxGeometry></mxCell><mxCell id="eoMGSKBOUgeIE6Lk5qr4-2291" style="edgeStyle=orthogonalEdgeStyle;rounded=1;html=1;strokeColor=#23445D;endArrow=none;endFill=0;strokeWidth=4;exitX=0;exitY=0.5;exitDx=0;exitDy=0;exitPerimeter=0;entryX=0.582;entryY=0.05;entryDx=0;entryDy=0;entryPerimeter=0;" parent="1" source="VIIdwyrcARPIxDZz3K_W-2174" target="2114" edge="1"><mxGeometry relative="1" as="geometry"><mxPoint x="760" y="982" as="sourcePoint"/><mxPoint x="671" y="982" as="targetPoint"/></mxGeometry></mxCell><mxCell id="eoMGSKBOUgeIE6Lk5qr4-2292" style="edgeStyle=orthogonalEdgeStyle;rounded=1;html=1;strokeColor=#23445D;endArrow=none;endFill=0;strokeWidth=4;exitX=0.592;exitY=0.056;exitDx=0;exitDy=0;exitPerimeter=0;entryX=1;entryY=0.5;entryDx=0;entryDy=0;entryPerimeter=0;" parent="1" source="eoMGSKBOUgeIE6Lk5qr4-2258" target="VIIdwyrcARPIxDZz3K_W-2174" edge="1"><mxGeometry relative="1" as="geometry"><mxPoint x="821" y="769" as="sourcePoint"/><mxPoint x="732" y="769" as="targetPoint"/><Array as="points"><mxPoint x="671" y="539"/></Array></mxGeometry></mxCell><mxCell id="eoMGSKBOUgeIE6Lk5qr4-2293" style="edgeStyle=orthogonalEdgeStyle;rounded=1;html=1;strokeColor=#23445D;endArrow=none;endFill=0;strokeWidth=4;entryX=0.606;entryY=0.075;entryDx=0;entryDy=0;entryPerimeter=0;exitX=1;exitY=0.5;exitDx=0;exitDy=0;exitPerimeter=0;" parent="1" source="VIIdwyrcARPIxDZz3K_W-2174" target="eoMGSKBOUgeIE6Lk5qr4-2260" edge="1"><mxGeometry relative="1" as="geometry"><mxPoint x="831" y="779" as="sourcePoint"/><mxPoint x="742" y="779" as="targetPoint"/></mxGeometry></mxCell><mxCell id="eoMGSKBOUgeIE6Lk5qr4-2294" style="edgeStyle=orthogonalEdgeStyle;rounded=1;html=1;strokeColor=#23445D;endArrow=none;endFill=0;strokeWidth=4;entryX=0;entryY=0.5;entryDx=0;entryDy=0;entryPerimeter=0;exitX=0.684;exitY=0.019;exitDx=0;exitDy=0;exitPerimeter=0;" parent="1" source="eoMGSKBOUgeIE6Lk5qr4-2262" target="VIIdwyrcARPIxDZz3K_W-2172" edge="1"><mxGeometry relative="1" as="geometry"><mxPoint x="1061" y="720" as="sourcePoint"/><mxPoint x="752" y="789" as="targetPoint"/><Array as="points"><mxPoint x="1060" y="720"/><mxPoint x="1061" y="720"/><mxPoint x="1061" y="539"/></Array></mxGeometry></mxCell><mxCell id="eoMGSKBOUgeIE6Lk5qr4-2295" style="edgeStyle=orthogonalEdgeStyle;rounded=1;html=1;strokeColor=#23445D;endArrow=none;endFill=0;strokeWidth=4;exitX=1;exitY=0.5;exitDx=0;exitDy=0;exitPerimeter=0;entryX=0.645;entryY=0.009;entryDx=0;entryDy=0;entryPerimeter=0;" parent="1" source="VIIdwyrcARPIxDZz3K_W-2172" target="eoMGSKBOUgeIE6Lk5qr4-2266" edge="1"><mxGeometry relative="1" as="geometry"><mxPoint x="1262" y="1021" as="sourcePoint"/><mxPoint x="762" y="799" as="targetPoint"/></mxGeometry></mxCell><mxCell id="eoMGSKBOUgeIE6Lk5qr4-2296" style="edgeStyle=orthogonalEdgeStyle;rounded=1;html=1;strokeColor=#23445D;endArrow=none;endFill=0;strokeWidth=4;entryX=0.594;entryY=-0.08;entryDx=0;entryDy=0;entryPerimeter=0;" parent="1" target="eoMGSKBOUgeIE6Lk5qr4-2264" edge="1"><mxGeometry relative="1" as="geometry"><mxPoint x="1241" y="600" as="sourcePoint"/><mxPoint x="1272" y="720" as="targetPoint"/><Array as="points"><mxPoint x="1241" y="650"/><mxPoint x="1241" y="650"/></Array></mxGeometry></mxCell><mxCell id="eoMGSKBOUgeIE6Lk5qr4-2297" style="edgeStyle=orthogonalEdgeStyle;rounded=1;html=1;strokeColor=#23445D;endArrow=none;endFill=0;strokeWidth=4;exitX=0.638;exitY=-0.02;exitDx=0;exitDy=0;exitPerimeter=0;entryX=0;entryY=0.5;entryDx=0;entryDy=0;entryPerimeter=0;" parent="1" source="eoMGSKBOUgeIE6Lk5qr4-2268" target="VIIdwyrcARPIxDZz3K_W-2173" edge="1"><mxGeometry relative="1" as="geometry"><mxPoint x="871" y="819" as="sourcePoint"/><mxPoint x="1262" y="1021" as="targetPoint"/><Array as="points"><mxPoint x="1625" y="540"/><mxPoint x="1791" y="540"/></Array></mxGeometry></mxCell><mxCell id="eoMGSKBOUgeIE6Lk5qr4-2298" style="edgeStyle=orthogonalEdgeStyle;rounded=1;html=1;strokeColor=#23445D;endArrow=none;endFill=0;strokeWidth=4;exitX=0.614;exitY=0.007;exitDx=0;exitDy=0;exitPerimeter=0;" parent="1" source="eoMGSKBOUgeIE6Lk5qr4-2270" target="VIIdwyrcARPIxDZz3K_W-2173" edge="1"><mxGeometry relative="1" as="geometry"><mxPoint x="1700" y="1022" as="sourcePoint"/><mxPoint x="1262" y="1021" as="targetPoint"/><Array as="points"><mxPoint x="1813" y="539"/></Array></mxGeometry></mxCell><mxCell id="eoMGSKBOUgeIE6Lk5qr4-2299" style="edgeStyle=orthogonalEdgeStyle;rounded=1;html=1;strokeColor=#23445D;endArrow=none;endFill=0;strokeWidth=4;exitX=0.624;exitY=-0.006;exitDx=0;exitDy=0;exitPerimeter=0;" parent="1" source="eoMGSKBOUgeIE6Lk5qr4-2272" target="VIIdwyrcARPIxDZz3K_W-2173" edge="1"><mxGeometry relative="1" as="geometry"><mxPoint x="891" y="839" as="sourcePoint"/><mxPoint x="802" y="839" as="targetPoint"/><Array as="points"><mxPoint x="2004" y="539"/></Array></mxGeometry></mxCell><mxCell id="eoMGSKBOUgeIE6Lk5qr4-2326" value="&lt;font style=&quot;font-size: 26px;&quot;&gt;ESMF&lt;/font&gt;" style="rounded=0;whiteSpace=wrap;html=1;" parent="1" vertex="1"><mxGeometry x="505.5" y="260" width="130" height="60" as="geometry"/></mxCell><mxCell id="eoMGSKBOUgeIE6Lk5qr4-2328" style="edgeStyle=orthogonalEdgeStyle;rounded=1;html=1;strokeColor=#23445D;endArrow=none;endFill=0;strokeWidth=4;" parent="1" source="eoMGSKBOUgeIE6Lk5qr4-2326" target="eoMGSKBOUgeIE6Lk5qr4-2274" edge="1"><mxGeometry relative="1" as="geometry"><mxPoint x="399" y="655.5" as="sourcePoint"/><mxPoint x="271" y="582.5" as="targetPoint"/></mxGeometry></mxCell><mxCell id="VIIdwyrcARPIxDZz3K_W-2173" value="DSMF" style="shape=mxgraph.cisco.controllers_and_modules.system_controller;sketch=0;html=1;pointerEvents=1;dashed=0;fillColor=#036897;strokeColor=#ffffff;strokeWidth=2;verticalLabelPosition=bottom;verticalAlign=top;align=center;outlineConnect=0;fontSize=26;" parent="1" vertex="1"><mxGeometry x="1881" y="510" width="61" height="58" as="geometry"/></mxCell><mxCell id="VIIdwyrcARPIxDZz3K_W-2181" style="edgeStyle=orthogonalEdgeStyle;rounded=0;orthogonalLoop=1;jettySize=auto;html=1;exitX=0.5;exitY=0;exitDx=0;exitDy=0;exitPerimeter=0;entryX=0.5;entryY=1;entryDx=0;entryDy=0;endArrow=none;endFill=0;strokeWidth=4;" parent="1" source="VIIdwyrcARPIxDZz3K_W-2174" target="eoMGSKBOUgeIE6Lk5qr4-2326" edge="1"><mxGeometry relative="1" as="geometry"/></mxCell><mxCell id="VIIdwyrcARPIxDZz3K_W-2174" value="DSMF" style="shape=mxgraph.cisco.controllers_and_modules.system_controller;sketch=0;html=1;pointerEvents=1;dashed=0;fillColor=#036897;strokeColor=#ffffff;strokeWidth=2;verticalLabelPosition=bottom;verticalAlign=top;align=center;outlineConnect=0;fontSize=26;" parent="1" vertex="1"><mxGeometry x="540" y="510" width="61" height="58" as="geometry"/></mxCell><mxCell id="VIIdwyrcARPIxDZz3K_W-2176" value="&lt;font style=&quot;font-size: 26px;&quot;&gt;ESMF&lt;/font&gt;" style="rounded=0;whiteSpace=wrap;html=1;" parent="1" vertex="1"><mxGeometry x="1846.5" y="260" width="130" height="60" as="geometry"/></mxCell><mxCell id="VIIdwyrcARPIxDZz3K_W-2177" value="&lt;font style=&quot;font-size: 26px;&quot;&gt;CTMF&lt;/font&gt;" style="rounded=0;whiteSpace=wrap;html=1;" parent="1" vertex="1"><mxGeometry x="1176" y="260" width="130" height="60" as="geometry"/></mxCell><mxCell id="VIIdwyrcARPIxDZz3K_W-2178" value="Two phase commit protocol" style="edgeStyle=orthogonalEdgeStyle;rounded=1;html=1;strokeColor=#23445D;endArrow=none;endFill=0;strokeWidth=4;exitX=1;exitY=0.5;exitDx=0;exitDy=0;entryX=0;entryY=0.5;entryDx=0;entryDy=0;fontSize=16;" parent="1" source="eoMGSKBOUgeIE6Lk5qr4-2326" target="VIIdwyrcARPIxDZz3K_W-2177" edge="1"><mxGeometry relative="1" as="geometry"><mxPoint x="500" y="300" as="sourcePoint"/><mxPoint x="270" y="604" as="targetPoint"/></mxGeometry></mxCell><mxCell id="VIIdwyrcARPIxDZz3K_W-2179" value="Two phase commit protocol" style="edgeStyle=orthogonalEdgeStyle;rounded=1;html=1;strokeColor=#23445D;endArrow=none;endFill=0;strokeWidth=4;exitX=1;exitY=0.5;exitDx=0;exitDy=0;fontSize=16;" parent="1" target="VIIdwyrcARPIxDZz3K_W-2176" edge="1"><mxGeometry relative="1" as="geometry"><mxPoint x="1306" y="289.17" as="sourcePoint"/><mxPoint x="1781" y="290" as="targetPoint"/></mxGeometry></mxCell><mxCell id="VIIdwyrcARPIxDZz3K_W-2172" value="DTMF" style="shape=mxgraph.cisco.controllers_and_modules.system_controller;sketch=0;html=1;pointerEvents=1;dashed=0;fillColor=#036897;strokeColor=#ffffff;strokeWidth=2;verticalLabelPosition=bottom;verticalAlign=top;align=center;outlineConnect=0;fontSize=26;" parent="1" vertex="1"><mxGeometry x="1210.5" y="510" width="61" height="58" as="geometry"/></mxCell><mxCell id="VIIdwyrcARPIxDZz3K_W-2182" style="edgeStyle=orthogonalEdgeStyle;rounded=0;orthogonalLoop=1;jettySize=auto;html=1;exitX=0.5;exitY=0;exitDx=0;exitDy=0;exitPerimeter=0;entryX=0.5;entryY=1;entryDx=0;entryDy=0;endArrow=none;endFill=0;strokeWidth=4;" parent="1" edge="1"><mxGeometry relative="1" as="geometry"><mxPoint x="1240.23" y="510" as="sourcePoint"/><mxPoint x="1240.23" y="320" as="targetPoint"/></mxGeometry></mxCell><mxCell id="VIIdwyrcARPIxDZz3K_W-2183" style="edgeStyle=orthogonalEdgeStyle;rounded=0;orthogonalLoop=1;jettySize=auto;html=1;exitX=0.5;exitY=0;exitDx=0;exitDy=0;exitPerimeter=0;entryX=0.5;entryY=1;entryDx=0;entryDy=0;endArrow=none;endFill=0;strokeWidth=4;" parent="1" edge="1"><mxGeometry relative="1" as="geometry"><mxPoint x="1910.73" y="510" as="sourcePoint"/><mxPoint x="1910.73" y="320" as="targetPoint"/></mxGeometry></mxCell></root></mxGraphModel></diagram></mxfile>